<?xml version="1.0" encoding="utf-8"?>
<!-- Generator: Adobe Illustrator 27.0.1, SVG Export Plug-In . SVG Version: 6.00 Build 0)  -->
<svg version="1.1" xmlns="http://www.w3.org/2000/svg" xmlns:xlink="http://www.w3.org/1999/xlink" x="0px" y="0px"
	 viewBox="0 0 1000 1000" style="enable-background:new 0 0 1000 1000;" xml:space="preserve">
<style type="text/css">
	.st0{fill:#101010;}
	.st1{fill:none;stroke:#F2F2F2;stroke-width:60;stroke-linejoin:round;stroke-miterlimit:10;}
</style>
<g id="Layer_1">
	<path class="st0" d="M1000,350.5v299c0,193.6-156.9,350.5-350.5,350.5h-299C156.9,1000,0,843.1,0,649.5l0-299
		C0,156.9,156.9,0,350.5,0l299,0C843.1,0,1000,156.9,1000,350.5z"/>
</g>
<g id="Layer_2">
	<g id="Logo">
		<path class="st1" d="M800,500c0,20.6-2.1,40.6-6,60c-96.2-26.4-195.1-39.6-294-39.6S302.2,533.6,206,560c-3.9-19.4-6-39.4-6-60
			c0-165.7,134.3-300,300-300S800,334.3,800,500z"/>
		<path class="st1" d="M794,560c-12.7,62.6-44.9,118.2-90,160c-67.4-13.4-135.7-20.2-204-20.2s-136.6,6.7-204,20.2
			c-45.1-41.8-77.3-97.4-90-160c96.2-26.4,195.1-39.6,294-39.6S697.8,533.6,794,560z"/>
		<path class="st1" d="M704,720c-53.6,49.7-125.2,80-204,80s-150.4-30.3-204-80c67.4-13.4,135.7-20.2,204-20.2S636.6,706.6,704,720z
			"/>
	</g>
</g>
</svg>
